<?xml version="1.0" encoding="utf-8"?><svg version="1.1" id="Layer_1" xmlns="http://www.w3.org/2000/svg" xmlns:xlink="http://www.w3.org/1999/xlink" x="0px" y="0px" viewBox="0 0 114.16 122.88" style="enable-background:new 0 0 114.16 122.88" xml:space="preserve"><style type="text/css">.st0{fill-rule:evenodd;clip-rule:evenodd;}</style><g><path class="st0" d="M0,108.01h16.86V0.44c0-0.99,0.81,0,1.8,0h28.63h19.59h28.63c0.99,0,1.8-0.99,1.8,0v107.57h16.86v14.87H66.87 H47.29H0V108.01L0,108.01z M51.48,58.72h11.64c0.35,0,0.64,0.29,0.64,0.63v14.16c0,0.35-0.29,0.64-0.64,0.64H51.48 c-0.35,0-0.64-0.29-0.64-0.64V59.35C50.84,59,51.12,58.72,51.48,58.72L51.48,58.72z M50.23,13.45h13.69v10.86h10.86V38H63.93v10.86 H50.23V38H39.37V24.31h10.86V13.45L50.23,13.45z M66.87,9.23H47.29H26.54c-0.71,0-1.29,0.7-1.29,1.54v90.91 c0,0.84,0.59,1.54,1.29,1.54h20.75h19.59h20.75c0.71,0,1.29-0.69,1.29-1.54V10.77c0-0.85-0.59-1.54-1.29-1.54H66.87L66.87,9.23z M63.09,82.23h-0.3l-0.03,0H51.41l-0.03,0h-0.3c-0.36,0-0.65,0.29-0.65,0.65v14.15c0,0.36,0.29,0.65,0.65,0.65h0.26h0.07h11.34 h0.06h0.27c0.36,0,0.65-0.29,0.65-0.65V82.88C63.74,82.52,63.44,82.23,63.09,82.23L63.09,82.23z M82.87,82.22H71.2 c-0.36,0-0.65,0.29-0.65,0.66v14.15c0,0.36,0.29,0.65,0.65,0.65h11.68c0.36,0,0.66-0.29,0.66-0.65V82.88 C83.53,82.52,83.23,82.22,82.87,82.22L82.87,82.22z M82.87,58.76H71.2c-0.36,0-0.65,0.29-0.65,0.65v14.15 c0,0.36,0.29,0.66,0.65,0.66h11.68c0.36,0,0.66-0.29,0.66-0.65V59.41C83.53,59.05,83.23,58.76,82.87,58.76L82.87,58.76z M31.29,82.22h11.68c0.36,0,0.65,0.29,0.65,0.66v14.15c0,0.36-0.3,0.65-0.65,0.65H31.29c-0.36,0-0.66-0.29-0.66-0.65V82.88 C30.63,82.52,30.93,82.22,31.29,82.22L31.29,82.22z M31.29,58.76h11.68c0.36,0,0.65,0.29,0.65,0.65v14.15 c0,0.36-0.3,0.66-0.65,0.66H31.29c-0.36,0-0.66-0.29-0.66-0.65V59.41C30.63,59.05,30.93,58.76,31.29,58.76L31.29,58.76z"/></g></svg>